<svg width="672" height="499" viewBox="0 0 672 499" fill="none" xmlns="http://www.w3.org/2000/svg">
<rect width="672" height="498" transform="translate(0 0.803711)" fill="#FFF0F0"/>
<path d="M158.48 275.916C158.48 275.916 173.84 338.604 236.08 371.636C298.32 404.668 372.928 395.244 433.68 389.164C494.432 383.084 533.328 341.924 529.6 290.244C525.872 238.564 476.992 231.404 440 178.108C403.008 124.812 401.296 105.516 341.304 78.9876C281.312 52.4596 203.704 87.9956 173.424 155.828C143.144 223.66 158.48 275.916 158.48 275.916Z" fill="#FFBABA"/>
<path opacity="0.7" d="M158.48 275.916C158.48 275.916 173.84 338.604 236.08 371.636C298.32 404.668 372.928 395.244 433.68 389.164C494.432 383.084 533.328 341.924 529.6 290.244C525.872 238.564 476.992 231.404 440 178.108C403.008 124.812 401.296 105.516 341.304 78.9876C281.312 52.4596 203.704 87.9956 173.424 155.828C143.144 223.66 158.48 275.916 158.48 275.916Z" fill="white"/>
<path d="M188.536 103.14V383.268" stroke="#116C6F" stroke-miterlimit="10"/>
<path d="M188.536 92.3397V97.6997" stroke="#116C6F" stroke-miterlimit="10"/>
<path d="M290.544 92.3397V383.268" stroke="#116C6F" stroke-miterlimit="10"/>
<path d="M392.552 92.3397V383.268" stroke="#116C6F" stroke-miterlimit="10"/>
<path d="M494.56 133.82V383.268" stroke="#116C6F" stroke-miterlimit="10"/>
<path d="M494.56 92.3397V126.828" stroke="#116C6F" stroke-miterlimit="10"/>
<path d="M440.648 132.1H207.056V270.54H440.648V132.1Z" fill="#116C6F"/>
<path d="M439.328 136.036H208.376V266.604H439.328V136.036Z" fill="white" stroke="#116C6F" stroke-linecap="round" stroke-linejoin="round"/>
<path d="M441.96 129.732H204.392V137.156H441.96V129.732Z" fill="#116C6F"/>
<path d="M326.472 129.628C330.161 129.628 333.152 126.637 333.152 122.948C333.152 119.259 330.161 116.268 326.472 116.268C322.783 116.268 319.792 119.259 319.792 122.948C319.792 126.637 322.783 129.628 326.472 129.628Z" fill="white" stroke="#116C6F" stroke-linecap="round" stroke-linejoin="round"/>
<path d="M329.992 122.948C329.994 123.644 329.789 124.326 329.403 124.906C329.017 125.485 328.468 125.938 327.825 126.206C327.182 126.473 326.474 126.544 325.79 126.409C325.107 126.274 324.479 125.94 323.986 125.448C323.493 124.956 323.157 124.328 323.02 123.645C322.884 122.962 322.953 122.254 323.219 121.611C323.485 120.967 323.937 120.417 324.516 120.03C325.095 119.642 325.775 119.436 326.472 119.436C327.404 119.436 328.298 119.806 328.958 120.464C329.618 121.122 329.99 122.016 329.992 122.948Z" fill="#FFBABA" stroke="#116C6F" stroke-miterlimit="10"/>
<path d="M250.312 220.828H221.768V191.884H270.312V220.828H255.744" stroke="#116C6F" stroke-miterlimit="10"/>
<path d="M298.816 234.684H260.072V257.788H298.816V234.684Z" stroke="#116C6F" stroke-miterlimit="10"/>
<path d="M341.576 191.884H346.464V220.828H297.92V191.884H336.92" stroke="#116C6F" stroke-miterlimit="10"/>
<path d="M301.96 149.572H358.936V178.524H285.456V149.572H296.528" stroke="#116C6F" stroke-miterlimit="10"/>
<path d="M422.176 191.884H373.632V220.828H422.176V191.884Z" stroke="#116C6F" stroke-miterlimit="10"/>
<path d="M281.448 163.828C281.448 163.828 255.688 167.404 240.552 189.228" stroke="#116C6F" stroke-miterlimit="10"/>
<path d="M264.968 223.948L268.376 233.9" stroke="#116C6F" stroke-miterlimit="10"/>
<path d="M300.152 223.052L297.032 232.404" stroke="#116C6F" stroke-miterlimit="10"/>
<path d="M264.632 230.62L268.376 233.9L269.312 229.452" stroke="#116C6F" stroke-miterlimit="10"/>
<path d="M295.504 229.452L296.904 233.196L300.88 230.852" stroke="#116C6F" stroke-miterlimit="10"/>
<path d="M241.248 184.788L240.552 189.228L245.456 186.188" stroke="#116C6F" stroke-miterlimit="10"/>
<path d="M347.888 205.596H372.208" stroke="#116C6F" stroke-miterlimit="10"/>
<path d="M367.064 202.556L372.448 205.596L367.536 208.636" stroke="#116C6F" stroke-miterlimit="10"/>
<path d="M271.12 205.596H295.44" stroke="#116C6F" stroke-miterlimit="10"/>
<path d="M290.296 202.556L295.672 205.596L290.768 208.636" stroke="#116C6F" stroke-miterlimit="10"/>
<path d="M322.016 180.836V188.236" stroke="#116C6F" stroke-miterlimit="10"/>
<path d="M325.048 183.084L322.008 188.468L318.976 183.556" stroke="#116C6F" stroke-miterlimit="10"/>
<path d="M371.976 214.34H348.584" stroke="#116C6F" stroke-miterlimit="10"/>
<path d="M353.528 211.3L348.36 214.34L353.08 217.38" stroke="#116C6F" stroke-miterlimit="10"/>
<path d="M300.648 158.596H344.616" stroke="#116C6F" stroke-miterlimit="10"/>
<path d="M300.648 162.804H344.616" stroke="#116C6F" stroke-miterlimit="10"/>
<path d="M300.648 167.012H344.616" stroke="#116C6F" stroke-miterlimit="10"/>
<path d="M226.28 202.556H265.808" stroke="#116C6F" stroke-miterlimit="10"/>
<path d="M226.28 206.772H265.808" stroke="#116C6F" stroke-miterlimit="10"/>
<path d="M226.28 210.98H265.808" stroke="#116C6F" stroke-miterlimit="10"/>
<path d="M302.992 202.556H342.512" stroke="#116C6F" stroke-miterlimit="10"/>
<path d="M302.992 206.772H342.512" stroke="#116C6F" stroke-miterlimit="10"/>
<path d="M302.992 210.98H342.512" stroke="#116C6F" stroke-miterlimit="10"/>
<path d="M376.888 202.556H416.408" stroke="#116C6F" stroke-miterlimit="10"/>
<path d="M376.888 206.772H416.408" stroke="#116C6F" stroke-miterlimit="10"/>
<path d="M376.888 210.98H416.408" stroke="#116C6F" stroke-miterlimit="10"/>
<path d="M265.104 242.548H295.272" stroke="#116C6F" stroke-miterlimit="10"/>
<path d="M265.104 246.756H295.272" stroke="#116C6F" stroke-miterlimit="10"/>
<path d="M265.104 250.972H295.272" stroke="#116C6F" stroke-miterlimit="10"/>
<path d="M398.88 162.268C398.794 162.266 398.712 162.237 398.644 162.184C398.576 162.132 398.527 162.059 398.504 161.977C398.481 161.894 398.484 161.807 398.515 161.727C398.545 161.646 398.6 161.578 398.672 161.532L398.976 161.34L398.864 161.404C398.775 161.442 398.675 161.447 398.583 161.417C398.49 161.388 398.412 161.326 398.362 161.242C398.312 161.159 398.294 161.061 398.312 160.965C398.329 160.87 398.38 160.784 398.456 160.724L400.056 159.708L398.656 160.508C398.566 160.553 398.463 160.562 398.367 160.535C398.27 160.507 398.188 160.444 398.136 160.359C398.083 160.273 398.065 160.171 398.084 160.073C398.104 159.975 398.159 159.887 398.24 159.828L401.104 157.956L398.392 159.556C398.302 159.606 398.197 159.621 398.097 159.595C397.997 159.57 397.911 159.507 397.856 159.42C397.803 159.331 397.786 159.225 397.809 159.124C397.831 159.023 397.891 158.934 397.976 158.876L402.44 155.892L398.088 158.396C398 158.447 397.897 158.462 397.798 158.438C397.7 158.414 397.614 158.353 397.56 158.268C397.531 158.226 397.511 158.179 397.501 158.129C397.491 158.079 397.49 158.028 397.5 157.978C397.51 157.928 397.529 157.881 397.557 157.839C397.586 157.796 397.622 157.76 397.664 157.732L404.36 152.932L397.672 156.796C397.582 156.847 397.477 156.861 397.377 156.835C397.277 156.81 397.191 156.747 397.136 156.66C397.081 156.574 397.062 156.469 397.083 156.369C397.104 156.269 397.163 156.181 397.248 156.124L402.048 152.796L397.328 155.524C397.241 155.574 397.138 155.589 397.041 155.567C396.943 155.544 396.857 155.486 396.8 155.404C396.745 155.317 396.726 155.213 396.747 155.113C396.768 155.013 396.827 154.925 396.912 154.868L399.632 153.036L397.064 154.516C396.974 154.566 396.869 154.581 396.769 154.555C396.669 154.53 396.583 154.467 396.528 154.38C396.474 154.293 396.456 154.187 396.478 154.087C396.501 153.987 396.562 153.9 396.648 153.844L398.4 152.66L396.8 153.58C396.713 153.621 396.613 153.628 396.521 153.602C396.428 153.575 396.348 153.516 396.296 153.435C396.243 153.355 396.221 153.258 396.235 153.162C396.248 153.067 396.295 152.979 396.368 152.916L401.048 149.452L396.416 152.124C396.328 152.171 396.226 152.184 396.129 152.159C396.033 152.135 395.949 152.075 395.893 151.992C395.838 151.909 395.816 151.809 395.832 151.71C395.847 151.612 395.898 151.522 395.976 151.46L400.12 148.26L396 150.604C395.911 150.653 395.806 150.668 395.707 150.644C395.608 150.62 395.521 150.56 395.464 150.476C395.408 150.39 395.388 150.287 395.407 150.187C395.427 150.087 395.484 149.998 395.568 149.94L397.592 148.444L395.72 149.532C395.631 149.581 395.526 149.596 395.427 149.572C395.328 149.548 395.241 149.488 395.184 149.404C395.129 149.319 395.109 149.216 395.127 149.117C395.145 149.018 395.199 148.929 395.28 148.868L396.936 147.612L395.44 148.476C395.352 148.527 395.249 148.542 395.15 148.518C395.052 148.494 394.966 148.433 394.912 148.348C394.856 148.265 394.833 148.163 394.847 148.064C394.862 147.965 394.914 147.875 394.992 147.812L395.792 147.164L395.152 147.532C395.073 147.579 394.98 147.596 394.89 147.582C394.799 147.567 394.716 147.521 394.656 147.452C394.6 147.38 394.569 147.291 394.569 147.2C394.569 147.108 394.6 147.02 394.656 146.948L395.92 145.348L394.768 146.012C394.703 146.055 394.626 146.078 394.548 146.078C394.47 146.078 394.393 146.055 394.328 146.012C394.267 145.965 394.22 145.902 394.193 145.83C394.166 145.758 394.16 145.679 394.176 145.604L394.296 145.116C394.228 145.111 394.162 145.091 394.104 145.056C394.046 145.021 393.996 144.973 393.96 144.916C393.91 144.823 393.898 144.715 393.927 144.613C393.955 144.512 394.021 144.425 394.112 144.372L394.688 144.036C394.756 143.998 394.833 143.981 394.91 143.986C394.987 143.992 395.061 144.019 395.123 144.066C395.185 144.113 395.232 144.176 395.258 144.249C395.285 144.322 395.289 144.4 395.272 144.476L395.168 144.884L397.28 143.668C397.36 143.623 397.453 143.608 397.544 143.624C397.634 143.64 397.716 143.687 397.776 143.756C397.836 143.826 397.87 143.914 397.873 144.005C397.876 144.097 397.847 144.187 397.792 144.26L396.536 145.86L400.32 143.676C400.407 143.628 400.509 143.613 400.607 143.636C400.704 143.658 400.79 143.715 400.848 143.796C400.903 143.88 400.925 143.982 400.909 144.081C400.893 144.18 400.839 144.27 400.76 144.332L399.96 144.988L401.96 143.828C402.048 143.781 402.15 143.768 402.247 143.792C402.343 143.817 402.427 143.876 402.483 143.959C402.538 144.042 402.56 144.143 402.544 144.242C402.529 144.34 402.478 144.429 402.4 144.492L400.744 145.748L403.472 144.148C403.561 144.098 403.666 144.084 403.765 144.108C403.864 144.131 403.951 144.191 404.008 144.276C404.063 144.361 404.083 144.463 404.065 144.563C404.047 144.662 403.993 144.751 403.912 144.812L401.88 146.308L404.928 144.548C404.971 144.519 405.019 144.499 405.07 144.489C405.121 144.478 405.173 144.478 405.224 144.488C405.275 144.498 405.324 144.518 405.367 144.547C405.41 144.576 405.447 144.613 405.476 144.656C405.505 144.699 405.525 144.747 405.535 144.798C405.545 144.849 405.546 144.901 405.535 144.952C405.525 145.003 405.506 145.051 405.477 145.095C405.448 145.138 405.411 145.175 405.368 145.204L401.224 148.404L406.688 145.204C406.777 145.154 406.882 145.14 406.981 145.164C407.08 145.187 407.167 145.247 407.224 145.332C407.279 145.417 407.299 145.519 407.281 145.619C407.263 145.718 407.209 145.807 407.128 145.868L402.44 149.332L408.216 146.004C408.305 145.952 408.41 145.937 408.51 145.961C408.609 145.985 408.696 146.046 408.752 146.132C408.807 146.219 408.827 146.325 408.806 146.426C408.785 146.528 408.725 146.617 408.64 146.676L406.88 147.852L409.152 146.54C409.24 146.497 409.341 146.489 409.436 146.516C409.53 146.543 409.611 146.604 409.663 146.687C409.715 146.77 409.735 146.869 409.719 146.966C409.703 147.063 409.652 147.15 409.576 147.212L406.864 149.044L410.064 147.188C410.152 147.145 410.253 147.137 410.348 147.164C410.442 147.191 410.523 147.252 410.575 147.335C410.627 147.418 410.647 147.517 410.631 147.614C410.615 147.711 410.564 147.798 410.488 147.86L405.688 151.188L411.144 148.036C411.232 147.993 411.333 147.985 411.428 148.012C411.522 148.039 411.603 148.1 411.655 148.183C411.707 148.266 411.727 148.365 411.711 148.462C411.695 148.559 411.644 148.646 411.568 148.708L404.872 153.508L412.328 149.196C412.418 149.145 412.523 149.131 412.623 149.156C412.723 149.182 412.809 149.244 412.864 149.332C412.892 149.374 412.912 149.422 412.921 149.472C412.931 149.522 412.931 149.573 412.92 149.623C412.91 149.673 412.89 149.72 412.861 149.762C412.832 149.804 412.795 149.84 412.752 149.868L408.28 152.868L413.136 150.06C413.226 150.015 413.329 150.005 413.425 150.033C413.522 150.06 413.604 150.123 413.656 150.209C413.709 150.294 413.727 150.396 413.708 150.495C413.688 150.593 413.633 150.68 413.552 150.74L410.688 152.612L413.752 150.844C413.841 150.791 413.948 150.776 414.048 150.801C414.149 150.827 414.235 150.891 414.288 150.98C414.316 151.023 414.335 151.071 414.344 151.121C414.353 151.171 414.352 151.223 414.341 151.273C414.33 151.323 414.309 151.37 414.279 151.412C414.249 151.454 414.212 151.489 414.168 151.516L412.568 152.54L414.224 151.58C414.313 151.527 414.42 151.512 414.52 151.537C414.621 151.563 414.707 151.627 414.76 151.716C414.813 151.805 414.83 151.91 414.807 152.011C414.785 152.112 414.725 152.201 414.64 152.26L414.336 152.452L414.68 152.252C414.768 152.209 414.869 152.201 414.964 152.228C415.058 152.255 415.139 152.316 415.191 152.399C415.243 152.482 415.263 152.581 415.247 152.678C415.231 152.775 415.18 152.862 415.104 152.924L410.496 156.204L415.296 153.428C415.384 153.374 415.49 153.358 415.59 153.382C415.691 153.406 415.777 153.468 415.832 153.556C415.887 153.643 415.907 153.749 415.886 153.85C415.865 153.952 415.805 154.041 415.72 154.1L415.616 154.164C415.705 154.113 415.81 154.098 415.909 154.123C416.009 154.147 416.095 154.209 416.151 154.295C416.206 154.381 416.226 154.485 416.207 154.586C416.188 154.686 416.131 154.776 416.048 154.836L415.152 155.468L416 154.988C416.081 154.936 416.178 154.915 416.272 154.93C416.367 154.945 416.453 154.994 416.514 155.068C416.575 155.142 416.607 155.235 416.604 155.331C416.601 155.427 416.562 155.518 416.496 155.588L414.976 157.34L416.448 156.492C416.519 156.45 416.602 156.432 416.684 156.44C416.766 156.449 416.843 156.484 416.904 156.54C416.967 156.594 417.011 156.666 417.031 156.746C417.051 156.826 417.046 156.911 417.016 156.988L416.856 157.364C416.934 157.355 417.012 157.369 417.082 157.405C417.152 157.441 417.209 157.496 417.248 157.564C417.3 157.655 417.315 157.764 417.288 157.865C417.261 157.967 417.195 158.054 417.104 158.108L416.256 158.596C416.185 158.639 416.101 158.658 416.018 158.65C415.935 158.643 415.856 158.609 415.794 158.553C415.731 158.498 415.688 158.424 415.671 158.343C415.653 158.261 415.662 158.176 415.696 158.1L415.832 157.764L413.312 159.22C413.23 159.263 413.136 159.277 413.045 159.259C412.955 159.24 412.873 159.191 412.814 159.119C412.756 159.048 412.724 158.958 412.724 158.865C412.725 158.773 412.757 158.683 412.816 158.612L414.336 156.86L408.504 160.204C408.416 160.253 408.313 160.267 408.215 160.243C408.117 160.219 408.032 160.16 407.976 160.076C407.947 160.034 407.927 159.987 407.917 159.937C407.907 159.887 407.906 159.836 407.916 159.786C407.926 159.736 407.945 159.689 407.973 159.647C408.002 159.604 408.038 159.568 408.08 159.54L408.976 158.9L405.656 160.812C405.566 160.862 405.461 160.877 405.361 160.851C405.261 160.826 405.175 160.763 405.12 160.676C405.066 160.589 405.048 160.483 405.07 160.383C405.093 160.283 405.154 160.196 405.24 160.14L405.336 160.068L403.12 161.348C403.032 161.399 402.929 161.414 402.83 161.39C402.732 161.366 402.646 161.305 402.592 161.22C402.563 161.178 402.543 161.131 402.533 161.081C402.523 161.031 402.522 160.98 402.532 160.93C402.542 160.88 402.561 160.833 402.589 160.791C402.618 160.748 402.654 160.712 402.696 160.684L407.328 157.428L399.08 162.188C399.023 162.234 398.953 162.262 398.88 162.268Z" fill="#FFBABA"/>
<path d="M386.552 173.468C384.744 171.93 383.288 170.02 382.283 167.87C381.278 165.719 380.748 163.378 380.728 161.004C380.728 151.564 388.912 143.916 399.008 143.916C409.104 143.916 417.296 151.564 417.296 161.004C417.296 170.444 409.112 178.092 399.008 178.092C396.363 178.092 393.746 177.548 391.32 176.492" stroke="#116C6F" stroke-miterlimit="10"/>
<path d="M364.624 157.316H376.168" stroke="#116C6F" stroke-miterlimit="10"/>
<path d="M364.624 161.292H376.168" stroke="#116C6F" stroke-miterlimit="10"/>
<path d="M364.624 165.276H376.168" stroke="#116C6F" stroke-miterlimit="10"/>
<path d="M225.08 225.196H245.384" stroke="#116C6F" stroke-miterlimit="10"/>
<path d="M225.08 229.18H245.384" stroke="#116C6F" stroke-miterlimit="10"/>
<path d="M220.864 173.436H241.168" stroke="#116C6F" stroke-miterlimit="10"/>
<path d="M225.08 233.156H245.384" stroke="#116C6F" stroke-miterlimit="10"/>
<path d="M225.08 241.516H245.384" stroke="#116C6F" stroke-miterlimit="10"/>
<path d="M225.08 245.5H245.384" stroke="#116C6F" stroke-miterlimit="10"/>
<path d="M225.08 249.484H245.384" stroke="#116C6F" stroke-miterlimit="10"/>
<path d="M394.144 144.348L399.08 162.212L417.136 158.092" stroke="#116C6F" stroke-miterlimit="10"/>
<path d="M221.08 148.924V168.812H253.016" stroke="#116C6F" stroke-miterlimit="10"/>
<path d="M231.024 151.636H224.392V168.812H231.024V151.636Z" fill="#FFBABA" stroke="#116C6F" stroke-miterlimit="10"/>
<path d="M247.896 155.548H241.264V168.804H247.896V155.548Z" fill="#FFBABA" stroke="#116C6F" stroke-miterlimit="10"/>
<path d="M239.464 146.212H232.832V168.812H239.464V146.212Z" fill="#FFBABA" stroke="#116C6F" stroke-miterlimit="10"/>
<path d="M182.632 277.092C182.632 277.092 182.632 273.748 177.952 269.092C173.272 264.436 170.264 261.74 170.264 261.74C170.264 261.74 167.92 269.428 172.272 274.108C175.467 277.4 178.933 280.419 182.632 283.132V277.092Z" fill="#FFBABA"/>
<path d="M175.84 297.972C175.84 297.972 175.84 294.628 171.16 289.972C166.48 285.316 163.472 282.604 163.472 282.604C163.472 282.604 161.128 290.292 165.472 294.972C168.681 298.264 172.16 301.283 175.872 303.996L175.84 297.972Z" fill="#FFBABA"/>
<path d="M182.336 282.788C182.336 282.788 182.696 279.46 187.84 275.3C192.984 271.14 196.264 268.804 196.264 268.804C196.264 268.804 197.784 276.692 192.968 280.892C189.438 283.826 185.67 286.461 181.704 288.772L182.336 282.788Z" fill="#FFBABA"/>
<path d="M174.136 307.444C174.136 307.444 174.832 304.18 180.392 300.58C185.952 296.98 189.448 294.98 189.448 294.98C189.448 294.98 190.128 302.98 184.896 306.652C181.087 309.199 177.074 311.426 172.896 313.308L174.136 307.444Z" fill="#FFBABA"/>
<path d="M175.672 334.332C175.672 334.332 175.672 330.988 180.36 326.332C185.048 321.676 188.048 318.98 188.048 318.98C188.048 318.98 190.384 326.668 186.04 331.348C182.833 334.642 179.354 337.661 175.64 340.372L175.672 334.332Z" fill="#FFBABA"/>
<path d="M175.6 340.892C175.6 340.892 176.072 337.588 172.104 332.284C168.136 326.98 165.536 323.916 165.536 323.916C165.536 323.916 162.128 331.196 165.768 336.444C168.464 340.155 171.466 343.634 174.744 346.844L175.6 340.892Z" fill="#FFBABA"/>
<path d="M170.984 360.348C170.984 360.348 170.984 357.004 175.664 352.348C180.344 347.692 183.352 344.988 183.352 344.988C183.352 344.988 185.696 352.676 181.344 357.356C178.138 360.654 174.659 363.675 170.944 366.388L170.984 360.348Z" fill="#FFBABA"/>
<path d="M174.104 377.98C174.104 377.98 173.264 374.74 176.6 369.028C179.936 363.316 182.2 359.964 182.2 359.964C182.2 359.964 186.408 366.812 183.392 372.444C181.129 376.438 178.539 380.238 175.648 383.804L174.104 377.98Z" fill="#FFBABA"/>
<path d="M183.056 276.204C182.82 279.691 182.393 283.163 181.776 286.604C179.928 296.204 175.296 302.332 173.448 310.964C171.6 319.596 176.912 330.724 175.488 341.812C174.064 352.9 169.752 359.076 170.984 366.476C172.216 373.876 178.696 393.916 178.696 393.916" stroke="#116C6F" stroke-linecap="round" stroke-linejoin="round"/>
<path d="M182.296 285.012L187.336 281.14" stroke="#116C6F" stroke-linecap="round" stroke-linejoin="round"/>
<path d="M182.528 280.548L180.416 276.796" stroke="#116C6F" stroke-linecap="round" stroke-linejoin="round"/>
<path d="M173.728 310.604C173.728 310.604 177.952 307.404 182.296 304.276" stroke="#116C6F" stroke-linecap="round" stroke-linejoin="round"/>
<path d="M175.84 303.988C175.84 303.988 172.32 297.092 168.336 292.516" stroke="#116C6F" stroke-linecap="round" stroke-linejoin="round"/>
<path d="M175.84 339.092C178.251 334.647 181.294 330.576 184.872 327.004" stroke="#116C6F" stroke-linecap="round" stroke-linejoin="round"/>
<path d="M175.024 343.78C173.741 340.765 172.211 337.862 170.448 335.1C167.984 331.468 167.632 330.996 167.632 330.996" stroke="#116C6F" stroke-linecap="round" stroke-linejoin="round"/>
<path d="M170.984 366.492C172.052 363.833 173.323 361.26 174.784 358.796C176.246 356.514 177.895 354.358 179.712 352.348" stroke="#116C6F" stroke-linecap="round" stroke-linejoin="round"/>
<path d="M175.632 383.804C175.387 381.266 175.823 378.709 176.896 376.396C178.656 372.996 180.648 368.532 181.472 366.796" stroke="#116C6F" stroke-linecap="round" stroke-linejoin="round"/>
<path d="M152 321.756C152 321.756 151.632 319.66 154.064 316.22C156.496 312.78 158.064 310.772 158.064 310.772C158.064 310.772 160.368 315.34 158.144 318.772C156.498 321.184 154.651 323.453 152.624 325.556L152 321.756Z" fill="#FFBABA"/>
<path d="M158.512 334.116C158.512 334.116 158.144 332.02 160.576 328.572C163.008 325.124 164.576 323.132 164.576 323.132C164.576 323.132 166.872 327.7 164.656 331.132C163.009 333.546 161.162 335.818 159.136 337.924L158.512 334.116Z" fill="#FFBABA"/>
<path d="M152.8 325.3C152.8 325.3 152.216 323.252 148.536 321.204C144.856 319.156 142.552 318.004 142.552 318.004C142.552 318.004 142.456 323.124 145.936 325.204C148.456 326.691 151.097 327.962 153.832 329.004L152.8 325.3Z" fill="#FFBABA"/>
<path d="M160.608 339.868C160.608 339.868 159.808 337.9 155.936 336.244C152.064 334.588 149.648 333.732 149.648 333.732C149.648 333.732 150.096 338.828 153.776 340.556C156.448 341.731 159.212 342.683 162.04 343.404L160.608 339.868Z" fill="#FFBABA"/>
<path d="M162.56 356.9C162.56 356.9 162.2 354.804 158.752 352.372C155.304 349.94 153.152 348.596 153.152 348.596C153.152 348.596 152.512 353.676 155.752 356.14C158.104 357.857 160.595 359.374 163.2 360.676L162.56 356.9Z" fill="#FFBABA"/>
<path d="M163.32 361.004C163.32 361.004 162.664 358.98 164.576 355.228C166.488 351.476 167.776 349.268 167.776 349.268C167.776 349.268 170.704 353.46 168.992 357.148C167.708 359.769 166.204 362.277 164.496 364.644L163.32 361.004Z" fill="#FFBABA"/>
<path d="M169.192 377.916C169.192 377.916 169.44 375.804 172.736 373.18C176.032 370.556 178.136 369.092 178.136 369.092C178.136 369.092 179.056 374.124 175.968 376.764C173.711 378.616 171.302 380.275 168.768 381.724L169.192 377.916Z" fill="#FFBABA"/>
<path d="M168.328 372.7C168.328 372.7 168 370.604 164.52 368.204C161.04 365.804 158.92 364.42 158.92 364.42C158.92 364.42 158.288 369.5 161.528 371.964C163.888 373.681 166.387 375.199 169 376.5L168.328 372.7Z" fill="#FFBABA"/>
<path d="M168.28 384.1C168.28 384.1 168.464 381.98 165.744 378.756C163.024 375.532 161.264 373.676 161.264 373.676C161.264 373.676 159.368 378.428 161.872 381.628C163.734 383.893 165.784 385.996 168 387.916L168.28 384.1Z" fill="#FFBABA"/>
<path d="M151.624 321.268C152.15 323.435 152.793 325.571 153.552 327.668C155.752 333.468 159.32 336.828 161.424 342.068C163.528 347.308 161.424 354.868 163.488 361.636C165.552 368.404 168.96 371.836 168.992 376.612C169.024 381.388 167.136 394.604 167.136 394.604" stroke="#116C6F" stroke-linecap="round" stroke-linejoin="round"/>
<path d="M153.056 326.684L149.472 324.804" stroke="#116C6F" stroke-linecap="round" stroke-linejoin="round"/>
<path d="M152.424 323.916L153.344 321.332" stroke="#116C6F" stroke-linecap="round" stroke-linejoin="round"/>
<path d="M161.2 341.804C161.2 341.804 158.208 340.276 155.144 338.756" stroke="#116C6F" stroke-linecap="round" stroke-linejoin="round"/>
<path d="M159.2 337.892C160.079 335.114 161.239 332.433 162.664 329.892" stroke="#116C6F" stroke-linecap="round" stroke-linejoin="round"/>
<path d="M162.976 359.9C160.979 357.376 158.63 355.154 156 353.3" stroke="#116C6F" stroke-linecap="round" stroke-linejoin="round"/>
<path d="M164 362.756C164.475 360.725 165.117 358.737 165.92 356.812C167.072 354.268 167.24 353.932 167.24 353.932" stroke="#116C6F" stroke-linecap="round" stroke-linejoin="round"/>
<path d="M168.8 380.204C169.966 378.761 171.256 377.422 172.656 376.204C173.563 375.538 174.414 374.8 175.2 373.996" stroke="#116C6F" stroke-linecap="round" stroke-linejoin="round"/>
<path d="M168.992 376.556C168.039 375.005 166.969 373.529 165.792 372.14C164.626 370.867 163.358 369.693 162 368.628" stroke="#116C6F" stroke-linecap="round" stroke-linejoin="round"/>
<path d="M168 387.916C167.876 386.296 167.324 384.739 166.4 383.404C164.928 381.468 163.2 378.884 162.488 377.868" stroke="#116C6F" stroke-linecap="round" stroke-linejoin="round"/>
<path d="M512.911 180.4C516.538 164.791 506.824 149.197 491.215 145.57C475.605 141.943 460.012 151.657 456.385 167.267C452.758 182.876 462.472 198.47 478.082 202.096C493.691 205.723 509.285 196.009 512.911 180.4Z" fill="#116C6F" stroke="#116C6F" stroke-miterlimit="10"/>
<path d="M494.234 196.531C506.769 191.223 512.628 176.758 507.32 164.223C502.012 151.688 487.547 145.829 475.012 151.137C462.477 156.445 456.618 170.91 461.926 183.445C467.234 195.98 481.699 201.839 494.234 196.531Z" fill="white" stroke="#116C6F" stroke-miterlimit="10"/>
<path d="M492.24 158.012L484.624 173.812H495.504" stroke="#116C6F" stroke-miterlimit="10"/>
<path d="M487.392 173.804C487.394 174.352 487.233 174.887 486.929 175.344C486.626 175.8 486.194 176.156 485.689 176.367C485.183 176.577 484.626 176.633 484.089 176.528C483.551 176.422 483.057 176.159 482.67 175.772C482.282 175.385 482.017 174.892 481.91 174.355C481.802 173.818 481.857 173.261 482.066 172.754C482.275 172.248 482.63 171.815 483.085 171.511C483.541 171.206 484.076 171.044 484.624 171.044C484.987 171.043 485.347 171.113 485.683 171.252C486.018 171.39 486.324 171.593 486.581 171.849C486.838 172.106 487.042 172.41 487.181 172.746C487.32 173.081 487.392 173.441 487.392 173.804Z" fill="#FFBABA" stroke="#116C6F" stroke-miterlimit="10"/>
<path d="M327.728 248.78L324 243.356C324 243.356 324.736 234.636 323.904 233.276C323.072 231.916 309.6 230.34 308.8 231.348C308 232.356 310.832 233.268 310.832 233.268C310.832 233.268 308.912 234.116 309.112 235.084C309.408 236.508 311.864 236.684 311.864 236.684C311.864 236.684 309.912 237.988 310.152 238.836C310.344 239.508 312.296 240.036 312.296 240.036C312.296 240.036 310.32 240.932 311.936 242.076C313.552 243.22 314.92 244.404 314.92 244.404C314.92 244.404 313.8 246.804 316.832 248.892C319.864 250.98 325.104 254.78 325.104 254.78L327.728 248.78Z" fill="white" stroke="#116C6F" stroke-linecap="round" stroke-linejoin="round"/>
<path d="M309.304 227.716L306.32 227.468V228.388L308.72 229.74C308.856 229.049 309.052 228.372 309.304 227.716Z" fill="#116C6F" stroke="#116C6F" stroke-linecap="round" stroke-linejoin="round"/>
<path d="M321.032 233.756C320.899 233.761 320.766 233.742 320.64 233.7L308.8 229.964C308.646 229.922 308.501 229.85 308.375 229.752C308.249 229.653 308.145 229.53 308.068 229.389C307.991 229.249 307.943 229.095 307.928 228.936C307.912 228.777 307.929 228.616 307.977 228.464C308.025 228.311 308.104 228.17 308.208 228.049C308.312 227.927 308.44 227.828 308.583 227.758C308.726 227.687 308.883 227.646 309.042 227.638C309.202 227.629 309.362 227.653 309.512 227.708L321.352 231.444C321.618 231.528 321.846 231.704 321.995 231.94C322.144 232.177 322.205 232.458 322.167 232.735C322.129 233.011 321.994 233.266 321.786 233.453C321.578 233.639 321.311 233.747 321.032 233.756Z" fill="white" stroke="#116C6F" stroke-linecap="round" stroke-linejoin="round"/>
<path d="M327.2 236.084C327.021 236.084 326.843 236.057 326.672 236.004L320.56 234.076C320.33 234.043 320.109 233.961 319.913 233.835C319.718 233.709 319.552 233.541 319.428 233.345C319.304 233.148 319.224 232.926 319.194 232.695C319.165 232.465 319.186 232.23 319.256 232.008C319.326 231.786 319.444 231.582 319.601 231.411C319.758 231.239 319.951 231.104 320.166 231.014C320.38 230.925 320.612 230.883 320.845 230.892C321.077 230.901 321.305 230.961 321.512 231.068L327.624 232.996C328.019 233.126 328.348 233.405 328.541 233.774C328.733 234.143 328.775 234.573 328.656 234.972C328.556 235.284 328.363 235.558 328.103 235.757C327.843 235.955 327.527 236.07 327.2 236.084Z" fill="#116C6F" stroke="#116C6F" stroke-linecap="round" stroke-linejoin="round"/>
<path d="M322.272 237.868C321.721 236.27 321.08 234.705 320.352 233.18C319.512 231.628 317.896 230.292 317.256 228.732C316.616 227.172 314.904 229.588 315.536 230.756C316.168 231.924 317.6 233.66 317.624 234.452C317.648 235.244 317.856 235.828 316.944 238.452C316.032 241.076 315.528 244.052 317.568 246.148" fill="white"/>
<path d="M322.272 237.868C321.721 236.27 321.08 234.705 320.352 233.18C319.512 231.628 317.896 230.292 317.256 228.732C316.616 227.172 314.904 229.588 315.536 230.756C316.168 231.924 317.6 233.66 317.624 234.452C317.648 235.244 317.856 235.828 316.944 238.452C316.032 241.076 315.528 244.052 317.568 246.148" stroke="#116C6F" stroke-linecap="round" stroke-linejoin="round"/>
<path d="M310.864 233.268L317.624 234.452" stroke="#116C6F" stroke-linecap="round" stroke-linejoin="round"/>
<path d="M311.896 236.692C312.696 236.468 316.944 238.42 316.944 238.42" stroke="#116C6F" stroke-linecap="round" stroke-linejoin="round"/>
<path d="M312.328 240.044L315.84 241.22" stroke="#116C6F" stroke-linecap="round" stroke-linejoin="round"/>
<path d="M380.103 237.894C380.103 237.894 377.883 236.697 376.906 239.901C375.928 243.105 373.057 248.734 371.789 249.954C370.52 251.175 358.049 262.432 358.049 262.432C358.049 262.432 352.694 258.602 351.434 260.024C350.904 260.728 350.169 261.284 349.312 261.63L327.927 246.333L320 257.261C320 257.261 349.065 281.479 351.496 282.21C353.927 282.94 355.644 282.691 356.507 282.274C357.371 281.856 373.33 270.904 373.33 270.904C373.33 270.904 383.062 242.27 383.899 241.258C384.736 240.246 380.103 237.894 380.103 237.894Z" fill="#FFBABA" stroke="#116C6F" stroke-linecap="round" stroke-linejoin="round"/>
<path d="M348.976 262.868C348.976 262.868 352.912 267.412 352.912 273.164L348.976 262.868Z" fill="#FFBABA"/>
<path d="M348.976 262.868C348.976 262.868 352.912 267.412 352.912 273.164" stroke="#116C6F" stroke-linecap="round" stroke-linejoin="round"/>
<path d="M355.336 264.684C355.336 264.684 356.544 267.716 354.728 274.372L355.336 264.684Z" fill="#FFBABA"/>
<path d="M355.336 264.684C355.336 264.684 356.544 267.716 354.728 274.372" stroke="#116C6F" stroke-linecap="round" stroke-linejoin="round"/>
<path d="M384.8 237.804L404.592 238.54C404.592 238.54 388.704 262.996 388.84 276.436C388.976 289.876 391.64 317.732 391.64 317.732C391.64 317.732 382.936 324.62 373.936 323.332C372.96 323.188 372.44 315.124 372.44 315.124C372.44 315.124 371.864 322.956 371.2 322.836C366.16 321.932 364.2 316.724 364.2 316.724L365.248 289.804C365.248 289.804 365.248 272.148 367.216 267.076C369.184 262.004 382.48 239.476 382.48 239.476L384.8 237.804Z" fill="#FFBABA" stroke="#116C6F" stroke-linecap="round" stroke-linejoin="round"/>
<path d="M383.72 203.148C383.72 203.148 375.144 197.548 376.16 192.228C377.176 186.908 396.408 182.628 407.464 186.22C418.52 189.812 420.768 206.356 419.312 216.564C417.856 226.772 416.976 250.068 416.976 250.068L379.464 251.172C379.464 251.172 382.96 223.892 383.688 215.268C384.416 206.644 383.72 203.148 383.72 203.148Z" fill="#116C6F" stroke="#116C6F" stroke-linecap="round" stroke-linejoin="round"/>
<path d="M364.52 353.348C365.32 361.5 366.84 397.42 367.72 402.74H406.72C406.64 396.612 406.536 355.22 407.416 351.836C408.528 347.604 410.088 333.492 408.368 325.396C406.648 317.3 404.56 313.396 404.56 313.396L364.08 313.356L364.2 316.676C364.2 316.676 363.44 341.804 364.52 353.348Z" fill="#116C6F" stroke="#116C6F" stroke-linecap="round" stroke-linejoin="round"/>
<path d="M384 253.388C384 253.388 377.88 266.108 375.64 273.564C373.4 281.02 372.44 315.092 372.44 315.092" stroke="#116C6F" stroke-linecap="round" stroke-linejoin="round"/>
<path d="M399.659 238.675C399.659 238.675 387.162 253.805 384.749 259.253C382.336 264.701 380.723 285.56 381.04 294.399C381.357 303.238 384.8 312.99 384.8 312.99C394.932 314.302 395.836 315.414 405.652 312.99C405.652 312.99 410.752 295.615 408.634 290.465C407.311 287.089 409.296 285.676 408.634 282.175C408.634 282.175 420 243.001 420 242.428C420 241.855 419.719 241.259 418.286 240.926C416.852 240.593 399.659 238.675 399.659 238.675Z" fill="#FFBABA" stroke="#116C6F" stroke-linecap="round" stroke-linejoin="round"/>
<path d="M389.456 231.916L381.032 238.028L384.208 246.34L384.032 253.388L393.584 239.22L389.456 231.916Z" fill="#FABC07" stroke="#116C6F" stroke-linecap="round" stroke-linejoin="round"/>
<path d="M388.968 228.604C388.968 228.604 387.368 240.388 386.864 243.524C386.36 246.66 384 253.388 384 253.388C384 253.388 399.016 238.868 399.76 237.668C400.504 236.468 403.096 224.868 403.096 224.868C403.096 224.868 393.464 228.476 388.968 228.604Z" fill="white" stroke="#116C6F" stroke-linecap="round" stroke-linejoin="round"/>
<path d="M388.512 231.908C390.56 233.188 392.152 233.188 394.52 232.82C396.888 232.452 400.12 230.228 402.296 228.476C402.776 226.436 403.096 224.868 403.096 224.868C403.096 224.868 393.432 228.476 388.936 228.604C388.968 228.604 388.8 229.98 388.512 231.908Z" fill="#116C6F" stroke="#116C6F" stroke-linecap="round" stroke-linejoin="round"/>
<path d="M393.776 192.884L382.696 201.612C382.696 201.612 381.576 210.052 381.16 215.932C380.939 218.35 381.3 220.787 382.211 223.039C383.123 225.29 384.559 227.291 386.4 228.876C389.6 231.716 391.376 231.86 394.488 231.372C397.6 230.884 402.192 227.236 403.904 225.62C405.616 224.004 408.8 219.22 408.8 219.22C408.8 219.22 411.352 219.732 412.104 218.54C412.479 217.98 412.788 217.379 413.024 216.748C413.024 216.748 402.488 210.804 398.16 203.308C393.832 195.812 393.776 192.884 393.776 192.884Z" fill="white" stroke="#116C6F" stroke-linecap="round" stroke-linejoin="round"/>
<path d="M390.328 208.428C390.166 209.662 389.804 210.862 389.256 211.98C388.512 213.172 385.6 213.844 387.2 215.18C388.417 216.02 389.866 216.456 391.344 216.428" stroke="#116C6F" stroke-linecap="round" stroke-linejoin="round"/>
<path d="M387.112 218.692C387.112 218.692 393.048 221.252 396.864 217.812" stroke="#116C6F" stroke-linecap="round" stroke-linejoin="round"/>
<path d="M389.096 219.612C389.096 219.612 389.976 222.908 391.912 222.26C393.848 221.612 395.528 219.06 395.528 219.06C393.399 219.39 391.25 219.574 389.096 219.612V219.612Z" stroke="#116C6F" stroke-linecap="round" stroke-linejoin="round"/>
<path d="M397.8 209.964C397.8 210.828 397.456 211.564 397 211.564C396.544 211.564 396.104 210.892 396.08 210.028C396.056 209.164 396.424 208.428 396.88 208.428C397.336 208.428 397.776 209.108 397.8 209.964Z" fill="#116C6F"/>
<path d="M388.48 208.876C388.48 209.74 388.136 210.476 387.68 210.476C387.224 210.476 386.784 209.804 386.76 208.94C386.736 208.076 387.104 207.34 387.56 207.34C388.016 207.34 388.456 208.012 388.48 208.876Z" fill="#116C6F"/>
<path d="M385.344 205.252C385.636 204.946 385.988 204.703 386.378 204.54C386.768 204.376 387.187 204.295 387.61 204.301C388.033 204.307 388.45 204.4 388.835 204.575C389.22 204.749 389.565 205.002 389.848 205.316" stroke="#116C6F" stroke-linecap="round" stroke-linejoin="round"/>
<path d="M394.352 205.804C394.352 205.804 398.8 204.116 400.672 207.964" stroke="#116C6F" stroke-linecap="round" stroke-linejoin="round"/>
<path d="M405.072 231.06L393 242.675L385.5 250.675L393 248.175L408.392 237.612L405.072 231.06Z" fill="#FABC07" stroke="#116C6F" stroke-linecap="round" stroke-linejoin="round"/>
<path d="M389.048 292.508C387.268 292.011 385.568 291.263 384 290.284C381.048 288.524 377.904 289.14 375.272 289.22C372.64 289.3 370.808 289.884 371.104 290.924C371.4 291.964 374.032 291.892 374.824 291.868C375.616 291.844 376.968 293.124 376.968 293.124L370.384 294.724C370.384 294.724 368.32 296.108 369.944 297.636C371.568 299.164 371.864 298.82 371.864 298.82C371.864 298.82 374.352 302.7 376.992 302.884C379.632 303.068 390.36 300.38 390.36 300.38L389.048 292.508Z" fill="white" stroke="#116C6F" stroke-linecap="round" stroke-linejoin="round"/>
<path d="M403.424 263.024C403.668 264.587 405.002 287.594 405.002 287.594L388 292.597L388.908 304.675C388.908 304.675 419.335 300.203 419.899 297.866C420.463 295.529 418.478 255.159 418.647 252.838C418.816 250.516 421.295 242.675 413.869 242.675" fill="#FFBABA"/>
<path d="M403.424 263.024C403.668 264.587 405.002 287.594 405.002 287.594L388 292.597L388.908 304.675C388.908 304.675 419.335 300.203 419.899 297.866C420.463 295.529 418.478 255.159 418.647 252.838C418.816 250.516 421.295 242.675 413.869 242.675" stroke="#116C6F" stroke-linecap="round" stroke-linejoin="round"/>
<path d="M411.336 258.332C411.336 258.332 417.688 250.156 424.656 250.46L411.336 258.332Z" fill="#FFBABA"/>
<path d="M411.336 258.332C411.336 258.332 417.688 250.156 424.656 250.46" stroke="#116C6F" stroke-linecap="round" stroke-linejoin="round"/>
<path d="M411.336 261.356C411.336 261.356 416.784 258.332 422.232 258.332L411.336 261.356Z" fill="#FFBABA"/>
<path d="M411.336 261.356C411.336 261.356 416.784 258.332 422.232 258.332" stroke="#116C6F" stroke-linecap="round" stroke-linejoin="round"/>
<path d="M168.528 402.74V356.452C168.528 356.087 168.383 355.737 168.125 355.479C167.867 355.221 167.517 355.076 167.152 355.076H161.48C161.114 355.076 160.764 355.22 160.504 355.478C160.245 355.736 160.098 356.086 160.096 356.452V402.74H168.528Z" fill="#4C4C4C" stroke="#116C6F" stroke-linecap="round" stroke-linejoin="round"/>
<path d="M161.464 402.74V356.452C161.462 356.086 161.315 355.736 161.056 355.478C160.796 355.22 160.446 355.076 160.08 355.076H154.4C154.035 355.076 153.685 355.221 153.427 355.479C153.169 355.737 153.024 356.087 153.024 356.452V402.74H161.464Z" fill="#116C6F" stroke="#116C6F" stroke-linecap="round" stroke-linejoin="round"/>
<path d="M164.656 402.74H265.912C265.204 400.951 264.007 399.398 262.456 398.26C257.864 395.364 214.128 388.596 214.128 388.596L168.696 387.868L166.52 388.596C166.52 388.596 164.12 391.98 164.352 393.668C164.472 394.524 164.528 398.668 164.656 402.74Z" fill="#116C6F" stroke="#116C6F" stroke-linecap="round" stroke-linejoin="round"/>
<path d="M209 298.675C209 298.675 195.28 306.916 191.656 310.3C188.032 313.684 181.992 324.804 181.504 331.564C181.016 338.324 175.704 364.204 175.704 364.204C175.704 364.204 164.8 385.452 166.52 388.596C168.24 391.74 212.92 388.596 214.128 388.596C215.336 388.596 212.92 375.308 212.92 375.308C212.92 375.308 229.832 349.204 230.52 342.196C231.208 335.188 226.168 316.1 225.2 311.748C224.232 307.396 211.176 297.707 209 298.675Z" fill="white" stroke="#116C6F" stroke-linecap="round" stroke-linejoin="round"/>
<path d="M197.6 337.804C197.6 337.804 206.056 345.804 209.6 348.484" stroke="#116C6F" stroke-linecap="round" stroke-linejoin="round"/>
<path d="M193.6 344.02C193.6 344.02 209.176 349.356 213.176 349.804" stroke="#116C6F" stroke-linecap="round" stroke-linejoin="round"/>
<path d="M239.016 273.804C239.016 273.804 240.224 282.748 239.984 285.404C239.744 288.06 237.328 297.244 236.6 299.18C235.872 301.116 235.152 303.284 232.496 303.044C230.949 302.922 229.455 302.425 228.144 301.596L225.488 310.532L207.088 299.9L209.488 295.1C209.488 295.1 206.832 290.756 206.104 283.5C205.376 276.244 209.488 268.036 214.808 264.9C220.128 261.764 229.304 262.964 231.96 265.14C234.616 267.316 239.016 273.804 239.016 273.804Z" fill="white" stroke="#116C6F" stroke-linecap="round" stroke-linejoin="round"/>
<path d="M224.52 253.996C224.52 253.996 230.8 251.34 235.872 252.548C240.944 253.756 242.88 259.556 242.88 264.388C242.88 269.22 240.224 275.02 239.256 275.26C238.288 275.5 235.872 263.908 231.256 260.524C228.697 258.697 226.426 256.496 224.52 253.996Z" fill="#FFBABA" stroke="#116C6F" stroke-linecap="round" stroke-linejoin="round"/>
<path d="M216.8 255.452C216.8 255.452 226.712 250.132 235.408 257.62C244.104 265.108 241.208 272.604 239.272 275.26C237.336 277.916 237.344 282.996 235.888 283.964C234.432 284.932 234.2 280.1 232.512 279.164C230.824 278.228 231.04 281.804 229.112 286.604C227.184 291.404 218.48 298.444 213.912 297.964C209.344 297.484 203.76 292.364 200.616 281.772C197.472 271.18 199.656 259.78 205.416 256.172C207.105 255.116 209.03 254.498 211.017 254.373C213.004 254.247 214.992 254.618 216.8 255.452Z" fill="#FFBABA" stroke="#116C6F" stroke-linecap="round" stroke-linejoin="round"/>
<path d="M236 260.004C236 260.004 237.92 265.556 233.008 271.74C228.096 277.924 221.488 281.34 216.584 278.356C211.68 275.372 211.456 271.956 211.456 271.956" stroke="#116C6F" stroke-linecap="round" stroke-linejoin="round"/>
<path d="M203.584 273.004C203.584 273.004 202.512 289.668 212.544 291.404C222.576 293.14 228.12 282.604 228.12 282.604" stroke="#116C6F" stroke-linecap="round" stroke-linejoin="round"/>
<path d="M206.76 273.332C212.301 273.332 216.792 268.786 216.792 263.18C216.792 257.573 212.301 253.028 206.76 253.028C201.219 253.028 196.728 257.573 196.728 263.18C196.728 268.786 201.219 273.332 206.76 273.332Z" fill="#FFBABA" stroke="#116C6F" stroke-linecap="round" stroke-linejoin="round"/>
<path d="M204.648 261.716C204.648 261.716 205.928 255.1 209.552 254.244" stroke="#116C6F" stroke-linecap="round" stroke-linejoin="round"/>
<path d="M204.224 262.604C204.224 262.604 211.472 260.044 214.888 262.82" stroke="#116C6F" stroke-linecap="round" stroke-linejoin="round"/>
<path d="M203.792 263.844C203.792 263.844 200.592 265.98 201.664 270.892" stroke="#116C6F" stroke-linecap="round" stroke-linejoin="round"/>
<path d="M233.944 284.684C233.944 284.684 233.216 277.436 231.04 277.676C228.864 277.916 229.832 288.796 231.04 290.476C231.146 290.692 231.306 290.878 231.504 291.016C231.702 291.154 231.932 291.239 232.171 291.264C232.411 291.288 232.654 291.252 232.875 291.157C233.097 291.063 233.292 290.914 233.44 290.724" fill="white"/>
<path d="M233.944 284.684C233.944 284.684 233.216 277.436 231.04 277.676C228.864 277.916 229.832 288.796 231.04 290.476C231.146 290.692 231.306 290.878 231.504 291.016C231.702 291.154 231.932 291.239 232.171 291.264C232.411 291.288 232.654 291.252 232.875 291.157C233.097 291.063 233.292 290.914 233.44 290.724" stroke="#116C6F" stroke-linecap="round" stroke-linejoin="round"/>
<path d="M438.184 392.924H213.784L221.352 373.876H387.696L438.184 392.924Z" fill="#B5B5B5" stroke="#116C6F" stroke-linecap="round" stroke-linejoin="round"/>
<path d="M435.104 396.732H216.272V402.74H435.104V396.732Z" fill="#116C6F" stroke="#116C6F" stroke-linecap="round" stroke-linejoin="round"/>
<path d="M438.184 392.924H213.784V399.996H438.184V392.924Z" fill="#4C4C4C" stroke="#116C6F" stroke-linecap="round" stroke-linejoin="round"/>
<path d="M298.32 376.316L304.824 386.58H252.144L257.272 376.316H298.32Z" fill="white"/>
<path d="M288.4 379.396L294.904 389.652H242.216L247.352 379.396H288.4Z" fill="white"/>
<path d="M224.28 322.868L234.4 369.988L273.792 375.548C273.792 375.548 285.632 370.748 286.592 370.748C287.552 370.748 289.248 373.644 289.976 374.612C290.704 375.58 291.904 377.012 292.376 377.756C292.848 378.5 293.096 382.1 292.376 383.068C291.656 384.036 290.2 386.692 288.744 386.452C287.288 386.212 288.744 382.348 288.744 382.348C288.744 382.348 280.288 385.724 277.632 385.724C274.976 385.724 269.632 383.324 269.632 383.324C269.632 383.324 224.8 388.356 222.104 387.404C221.005 387.064 219.987 386.503 219.113 385.754C218.239 385.006 217.528 384.086 217.024 383.052C216.064 381.124 200.592 329.404 200.592 329.404" fill="white"/>
<path d="M224.28 322.868L234.4 369.988L273.792 375.548C273.792 375.548 285.632 370.748 286.592 370.748C287.552 370.748 289.248 373.644 289.976 374.612C290.704 375.58 291.904 377.012 292.376 377.756C292.848 378.5 293.096 382.1 292.376 383.068C291.656 384.036 290.2 386.692 288.744 386.452C287.288 386.212 288.744 382.348 288.744 382.348C288.744 382.348 280.288 385.724 277.632 385.724C274.976 385.724 269.632 383.324 269.632 383.324C269.632 383.324 224.8 388.356 222.104 387.404C221.005 387.064 219.987 386.503 219.113 385.754C218.239 385.006 217.528 384.086 217.024 383.052C216.064 381.124 200.592 329.404 200.592 329.404" stroke="#116C6F" stroke-linecap="round" stroke-linejoin="round"/>
<path d="M290.008 374.604C289.28 373.636 287.608 370.74 286.624 370.74C285.64 370.74 273.824 375.54 273.824 375.54L251.376 372.34C252.839 376.424 253.211 380.819 252.456 385.092C261.824 384.132 269.712 383.236 269.712 383.236C269.712 383.236 275.032 385.636 277.712 385.636C280.392 385.636 288.8 382.316 288.8 382.316C288.8 382.316 287.352 386.18 288.8 386.42C290.248 386.66 291.704 384.02 292.432 383.036C293.16 382.052 292.912 378.444 292.432 377.724C291.952 377.004 290.728 375.548 290.008 374.604Z" fill="white" stroke="#116C6F" stroke-linecap="round" stroke-linejoin="round"/>
<path d="M147.008 402.74H529.6" stroke="#116C6F" stroke-linecap="round" stroke-linejoin="round"/>
<path d="M357.168 386.9H399.696V385.532L336.384 376.06L337.92 377.428L357.168 386.9Z" fill="white" stroke="#116C6F" stroke-linecap="round" stroke-linejoin="round"/>
<path d="M357.168 385.532H399.696L377.232 376.284L337.92 376.06L357.168 385.532Z" fill="white" stroke="#116C6F" stroke-linecap="round" stroke-linejoin="round"/>
<path d="M364.096 378.164H368.08L366.048 377.316L362.144 377.348L364.096 378.164Z" fill="white" stroke="#116C6F" stroke-width="0.75" stroke-linecap="round" stroke-linejoin="round"/>
<path d="M372.184 381.548L374.224 382.404H378.208L376.168 381.548H372.184Z" fill="white" stroke="#116C6F" stroke-width="0.75" stroke-linecap="round" stroke-linejoin="round"/>
<path d="M379.568 380.268H375.16L376.328 380.756H380.752L379.568 380.268Z" fill="white" stroke="#116C6F" stroke-width="0.75" stroke-linecap="round" stroke-linejoin="round"/>
<path d="M370.28 380.756H374.272L373.104 380.268H369.12L370.28 380.756Z" fill="white" stroke="#116C6F" stroke-width="0.75" stroke-linecap="round" stroke-linejoin="round"/>
<path d="M373.264 379.476H377.64L376.392 378.964H372.04L373.264 379.476Z" fill="white" stroke="#116C6F" stroke-width="0.75" stroke-linecap="round" stroke-linejoin="round"/>
<path d="M358.048 378.164H362.04L360.128 377.364L356.216 377.404L358.048 378.164Z" fill="white" stroke="#116C6F" stroke-width="0.75" stroke-linecap="round" stroke-linejoin="round"/>
<path d="M365.992 378.964L367.216 379.476H371.208L369.984 378.964H365.992Z" fill="white" stroke="#116C6F" stroke-width="0.75" stroke-linecap="round" stroke-linejoin="round"/>
<path d="M385.536 384.612H390.12L386.696 383.204H382.168L385.536 384.612Z" fill="white" stroke="#116C6F" stroke-width="0.75" stroke-linecap="round" stroke-linejoin="round"/>
<path d="M376.12 383.204L379.488 384.612H383.48L380.112 383.204H376.12Z" fill="white" stroke="#116C6F" stroke-width="0.75" stroke-linecap="round" stroke-linejoin="round"/>
<path d="M370.072 383.204L373.44 384.612H377.432L374.064 383.204H370.072Z" fill="white" stroke="#116C6F" stroke-width="0.75" stroke-linecap="round" stroke-linejoin="round"/>
<path d="M368.016 383.204H360.224L363.008 384.612H371.384L368.016 383.204Z" fill="white" stroke="#116C6F" stroke-width="0.75" stroke-linecap="round" stroke-linejoin="round"/>
<path d="M370.144 378.164H374.456L372.256 377.26L368.064 377.3L370.144 378.164Z" fill="white" stroke="#116C6F" stroke-width="0.75" stroke-linecap="round" stroke-linejoin="round"/>
<path d="M378.232 381.548L380.272 382.404H384.768L382.688 381.548H378.232Z" fill="white" stroke="#116C6F" stroke-width="0.75" stroke-linecap="round" stroke-linejoin="round"/>
<path d="M372.168 382.404L370.12 381.548H366.136L368.176 382.404H372.168Z" fill="white" stroke="#116C6F" stroke-width="0.75" stroke-linecap="round" stroke-linejoin="round"/>
<path d="M355.992 378.164L354.2 377.42L348.896 377.46L350.28 378.164H355.992Z" fill="white" stroke="#116C6F" stroke-width="0.75" stroke-linecap="round" stroke-linejoin="round"/>
<path d="M367.056 380.268H363.072L364.232 380.756H368.224L367.056 380.268Z" fill="white" stroke="#116C6F" stroke-width="0.75" stroke-linecap="round" stroke-linejoin="round"/>
<path d="M359.944 378.964L361.168 379.476H365.16L363.936 378.964H359.944Z" fill="white" stroke="#116C6F" stroke-width="0.75" stroke-linecap="round" stroke-linejoin="round"/>
<path d="M362.176 380.756L361.016 380.268H354.432L355.4 380.756H362.176Z" fill="white" stroke="#116C6F" stroke-width="0.75" stroke-linecap="round" stroke-linejoin="round"/>
<path d="M352.864 379.476H359.112L357.888 378.964H351.856L352.864 379.476Z" fill="white" stroke="#116C6F" stroke-width="0.75" stroke-linecap="round" stroke-linejoin="round"/>
<path d="M364.08 381.548H356.968L358.656 382.404H366.12L364.08 381.548Z" fill="white" stroke="#116C6F" stroke-width="0.75" stroke-linecap="round" stroke-linejoin="round"/>
<path d="M357.168 385.532H355.632L326.216 343.116L327.672 342.676H346.928L357.168 385.532Z" fill="white" stroke="#116C6F" stroke-linecap="round" stroke-linejoin="round"/>
<path d="M355.632 385.532L336.384 376.06L326.144 342.676H345.392L355.632 385.532Z" fill="white" stroke="#116C6F" stroke-linecap="round" stroke-linejoin="round"/>
<path d="M206 303.675C209.667 305.508 217.5 310.075 219.5 313.675C221.5 317.275 222.333 319.175 222.5 319.675" stroke="#1DB2B6"/>
<path d="M264 383.675C266 382.075 263.833 376.675 262.5 374.175L251 372.675L252.5 385.175C255.5 385.342 262 385.275 264 383.675Z" fill="#76D3D6" stroke="#1DB2B6"/>
<path d="M225.5 313.175C223.9 307.175 213.5 301.342 208.5 299.175C202 299.175 208.5 308.175 216.5 309.175C222.9 309.975 228.167 331.175 230 341.675C229.167 334.675 227.1 319.175 225.5 313.175Z" fill="#76D3D6" stroke="#1DB2B6"/>
<path d="M329.5 265.675L336 253.675L327.5 246.175L320.5 257.675L329.5 265.675Z" fill="#FABC07" stroke="#1DB2B6"/>
<path d="M401.5 303.675L399.5 290.675L388 292.675L389.5 305.175L401.5 303.675Z" fill="#FABC07" stroke="#1DB2B6"/>
</svg>
